<svg width="207" height="60" viewBox="0 0 207 60" fill="none" xmlns="http://www.w3.org/2000/svg">
<g clip-path="url(#clip0_1_1733)">
<path d="M203.626 18.15C196.267 2.40542 177.538 -4.39014 161.792 2.96773L160.415 0.0196118C144.669 7.37748 137.871 26.1039 145.23 41.8484C152.588 57.593 171.317 64.3886 187.063 57.0307L188.44 59.977C204.186 52.6192 210.984 33.8928 203.626 18.1482V18.15ZM181.567 45.2755C172.316 49.5983 161.313 45.6036 156.99 36.3549C152.666 27.1043 156.662 16.103 165.911 11.7801L167.288 14.7247C176.54 10.4019 187.542 14.3966 191.866 23.6453C196.189 32.8959 192.194 43.8972 182.944 48.22L181.567 45.2755Z" fill="white"/>
<path d="M143.899 59.4838L116.398 59.4855H109.786V59.4838H108.179L106.371 55.6062L103.417 49.2718V0.501953H116.398V46.5064H137.848L143.032 57.6248L143.899 59.4838Z" fill="white"/>
<path d="M78.2581 15.8546L71.0964 0.500244L63.9363 15.8563L65.3236 18.8293L58.1725 34.1641L46.3645 59.4803H60.6863L65.3325 49.5184L72.4836 34.1854L84.2792 59.4803H98.5992L98.6028 59.4785L78.2581 15.8546Z" fill="white"/>
<path d="M43.7407 40.8302C43.7407 40.9632 43.7407 41.0909 43.7371 41.2204C43.5278 51.3437 35.2554 59.4803 25.0831 59.4803H0L6.05124 46.5011H10.0978V46.5065H25.4663C27.0328 46.5065 28.4502 45.8714 29.4756 44.8461C30.5028 43.8191 31.1379 42.4018 31.1379 40.8355C31.1379 37.7029 28.5975 35.1645 25.4663 35.1645H25.2782C25.2126 35.1628 25.1487 35.161 25.0831 35.161H20.4067C16.1278 35.161 12.2089 33.6373 9.18419 31.0652C5.54386 27.9734 3.19859 23.4058 3.07086 18.29C3.07086 18.2173 3.06199 17.9211 3.06199 17.843C3.06199 13.0537 5.00278 8.71843 8.14105 5.58051C11.2793 2.44259 15.6151 0.502018 20.4032 0.500244H45.8447L39.7881 13.4794H20.4067C20.3819 13.4794 20.3571 13.4794 20.3322 13.4812H20.0803C18.8758 13.4812 17.7829 13.969 16.9935 14.7601C16.2041 15.5495 15.7144 16.6404 15.7144 17.8466C15.7144 20.2572 17.6694 22.2102 20.0803 22.2102H25.4042C35.5606 22.3805 43.7407 30.6342 43.7407 40.8302Z" fill="white"/>
</g>
<defs>
<clipPath id="clip0_1_1733">
<rect width="206.594" height="60" fill="white"/>
</clipPath>
</defs>
</svg>
